# xmcd
#
# Track frame offsets: 
#        150
#        10049
#        26794
#        37478
#        55414
#        67741
#        81796
#        93577
#        106812
#        120180
#        134017
#        148019
#        160801
#        173571
#        185319
#        195297
#        208718
#        219732
#        232398
#        246074
#
# Disc length: 3442 seconds
#
# Revision: 0
# Processed by: cddbd v1.5.2PL0 Copyright (c) Steve Scherf et al.
# Submitted via: ExactAudioCopy v0.99pb4
#
DISCID=1a0d7014
DTITLE=Various Artist - Jazz Soul Blues [CD5-Roots Of Blues)
DYEAR=2009
DGENRE=Blues
TTITLE0=Buddy Guy - First Time I Met The Blues
TTITLE1=Muddy Waters - Sad Sad Day
TTITLE2=Sonny Terry and Brownie Mcghee - Stranger Blues
TTITLE3=James Cotton - V-8 Ford Blues
TTITLE4=Neal Pattman - Momma Whoopin'blues
TTITLE5=Rufus Mckenzie - Slavery Time Blues
TTITLE6=Samuel Turner Stevens - Railroadin and Gamblin'
TTITLE7=Sleeppy John Estes - Jailhouse Blues
TTITLE8=Lightnin' Hopkins - Mojo Hand
TTITLE9=Kokomo Arnold - Grandpa Got Drunk
TTITLE10=Arthur "Big Boy" Crudup - My Mamma Don't Allow Me
TTITLE11=Blind Boy Fuller - Money Spending Woman
TTITLE12=Howlin' Wolf - I've Got A Woman
TTITLE13=Mississipi Fred Mc Dowell - Good Morning Little School Girl
TTITLE14=Leadbelly - On Monday
TTITLE15=Skip James - Devil Got My Woman
TTITLE16=Jb. Lenoir - Mama Talk To Your Daughter
TTITLE17=Blind Willie Mc Tell - You Was Born To Die
TTITLE18=Robert Johnson - Sweet Home Chicago
TTITLE19=Django Reinhardt - St Louis Blues
EXTD=
EXTT0=
EXTT1=
EXTT2=
EXTT3=
EXTT4=
EXTT5=
EXTT6=
EXTT7=
EXTT8=
EXTT9=
EXTT10=
EXTT11=
EXTT12=
EXTT13=
EXTT14=
EXTT15=
EXTT16=
EXTT17=
EXTT18=
EXTT19=
PLAYORDER=
